<svg width="199" height="60" viewBox="0 0 199 60" fill="none" xmlns="http://www.w3.org/2000/svg">
<path d="M112.39 15.25H92.16C91.92 15.25 91.8 15.37 91.8 15.61V26.78C91.8 26.96 91.92 27.14 92.16 27.14H105.69C106.29 27.14 106.66 27.5 106.66 28.11V32.22C106.66 32.82 106.3 33.19 105.69 33.19H92.16C91.98 33.19 91.8 33.31 91.8 33.55V50.52C91.8 51.12 91.44 51.49 90.83 51.49H85.76C85.16 51.49 84.79 51.13 84.79 50.52V10.18C84.79 9.57999 85.15 9.20999 85.76 9.20999H112.4C113 9.20999 113.37 9.56999 113.37 10.18V14.29C113.36 14.89 112.99 15.25 112.39 15.25Z" fill="white"/>
<path d="M118.55 50.53V10.18C118.55 9.57999 118.91 9.20999 119.52 9.20999H124.59C125.19 9.20999 125.56 9.56999 125.56 10.18V50.53C125.56 51.13 125.2 51.5 124.59 51.5H119.52C118.91 51.49 118.55 51.13 118.55 50.53Z" fill="white"/>
<path d="M157.97 30.41V50.52C157.97 51.12 157.61 51.49 157 51.49H151.93C151.33 51.49 150.96 51.13 150.96 50.52V49.02C150.96 48.72 150.78 48.66 150.54 48.84C148.43 50.89 145.47 51.98 141.84 51.98C136.22 51.98 131.63 49.2 131.63 42.86C131.63 36.64 136.16 32.89 144.19 32.89H150.59C150.83 32.89 150.95 32.77 150.95 32.53V31.14C150.95 28.06 149.14 26.19 145.33 26.19C142.43 26.19 140.56 27.28 139.95 29.03C139.77 29.63 139.47 29.88 138.86 29.82L133.42 29.16C132.82 29.1 132.45 28.8 132.51 28.37C133.23 23.6 138.19 20.16 145.13 20.16C152.96 20.14 157.97 24.49 157.97 30.41ZM150.96 40.86V38.08C150.96 37.84 150.84 37.72 150.6 37.72H145.59C141.36 37.72 138.64 39.35 138.64 42.37C138.64 45.03 140.87 46.42 143.77 46.42C147.58 46.42 150.96 44.18 150.96 40.86Z" fill="white"/>
<path d="M164.38 12.35C164.38 9.81 166.25 8 168.91 8C171.57 8 173.38 9.81 173.38 12.35C173.38 14.95 171.57 16.76 168.91 16.76C166.25 16.76 164.38 14.95 164.38 12.35ZM165.41 50.53V21.59C165.41 20.99 165.77 20.62 166.38 20.62H171.45C172.05 20.62 172.42 20.98 172.42 21.59V50.52C172.42 51.12 172.06 51.49 171.45 51.49H166.38C165.77 51.49 165.41 51.13 165.41 50.53Z" fill="white"/>
<path d="M197.81 20.93C198.29 21.17 198.47 21.59 198.35 22.14L197.38 27.15C197.26 27.81 196.9 27.94 196.23 27.75C195.44 27.51 194.36 27.39 193.15 27.57C189.89 27.75 187.23 29.98 187.23 33.67V50.52C187.23 51.12 186.87 51.49 186.26 51.49H181.19C180.59 51.49 180.22 51.13 180.22 50.52V21.59C180.22 20.99 180.58 20.62 181.19 20.62H186.26C186.86 20.62 187.23 20.98 187.23 21.59V23.95C187.23 24.25 187.41 24.37 187.59 24.07C189.16 21.71 191.46 20.26 194.6 20.26C196.06 20.27 197.03 20.57 197.81 20.93Z" fill="white"/>
<path d="M18.765 0.52683V58.9568C18.765 59.5391 18.292 60 17.7219 60H1.04318C0.460938 60 0 59.5391 0 58.9568V19.7528C0 18.649 0.436678 17.5937 1.22513 16.8052L17.8674 0.150801C18.1949 -0.176708 18.765 0.0658914 18.765 0.52683Z" fill="#6875F5"/>
<path d="M43.3282 21.4389V38.1176C43.3282 38.6877 42.8551 39.1607 42.285 39.1607H20.912C20.6209 39.1607 20.3904 38.9181 20.3904 38.6391V20.9173C20.3904 20.6262 20.6209 20.3957 20.912 20.3957H42.285C42.8551 20.3957 43.3282 20.8566 43.3282 21.4389Z" fill="#6875F5"/>
<path d="M51.4189 17.4845C51.8919 17.9576 51.5644 18.7703 50.8973 18.7703H20.912C20.6209 18.7703 20.3904 18.5277 20.3904 18.2487V0.526837C20.3904 0.235718 20.6209 0.00524902 20.912 0.00524902H50.8973C51.5644 0.00524902 51.8919 0.817956 51.4189 1.27889L43.8498 8.84799C43.5587 9.15124 43.5587 9.6243 43.8498 9.91542L51.4189 17.4845Z" fill="#6875F5"/>
</svg>
