<svg height='300px' width='300px'  fill="#000000" xmlns="http://www.w3.org/2000/svg" xmlns:xlink="http://www.w3.org/1999/xlink" viewBox="0 0 24 24" version="1.1" x="0px" y="0px"><title>icon/letter-spacing</title><desc>Created with Sketch.</desc><g stroke="none" stroke-width="1" fill="none" fill-rule="evenodd"><path d="M20.2928932,17 L2.70710678,17 L4.85355339,19.1464466 C5.04881554,19.3417088 5.04881554,19.6582912 4.85355339,19.8535534 C4.65829124,20.0488155 4.34170876,20.0488155 4.14644661,19.8535534 L1.14644661,16.8535534 C0.951184464,16.6582912 0.951184464,16.3417088 1.14644661,16.1464466 L4.14644661,13.1464466 C4.34170876,12.9511845 4.65829124,12.9511845 4.85355339,13.1464466 C5.04881554,13.3417088 5.04881554,13.6582912 4.85355339,13.8535534 L2.70710678,16 L20.2928932,16 L18.1464466,13.8535534 C17.9511845,13.6582912 17.9511845,13.3417088 18.1464466,13.1464466 C18.3417088,12.9511845 18.6582912,12.9511845 18.8535534,13.1464466 L21.8535534,16.1464466 C22.0488155,16.3417088 22.0488155,16.6582912 21.8535534,16.8535534 L18.8535534,19.8535534 C18.6582912,20.0488155 18.3417088,20.0488155 18.1464466,19.8535534 C17.9511845,19.6582912 17.9511845,19.3417088 18.1464466,19.1464466 L20.2928932,17 L20.2928932,17 Z M19.4427152,8.26739642 C19.4459551,8.27355014 19.4490704,8.27977965 19.4520578,8.28608158 L20.9472136,11.2763932 C21.0707082,11.5233825 20.970596,11.823719 20.7236068,11.9472136 C20.4766175,12.0707082 20.176281,11.970596 20.0527864,11.7236068 L18.690983,9 L14.309017,9 L12.9472136,11.7236068 C12.823719,11.970596 12.5233825,12.0707082 12.2763932,11.9472136 C12.029404,11.823719 11.9292918,11.5233825 12.0527864,11.2763932 L13.5479422,8.28608168 C13.5509296,8.27977965 13.5540449,8.27355014 13.5572848,8.26739642 L16.0527864,3.2763932 C16.2370485,2.90786893 16.7629515,2.90786893 16.9472136,3.2763932 L19.4427152,8.26739641 L19.4427152,8.26739642 Z M14.809017,8 L18.190983,8 L16.5,4.61803399 L14.809017,8 Z M6.5,10.381966 L10.0527864,3.2763932 C10.176281,3.02940395 10.4766175,2.92929178 10.7236068,3.0527864 C10.970596,3.17628103 11.0707082,3.47661755 10.9472136,3.7236068 L6.9472136,11.7236068 C6.76295146,12.0921311 6.23704854,12.0921311 6.0527864,11.7236068 L2.0527864,3.7236068 C1.92929178,3.47661755 2.02940395,3.17628103 2.2763932,3.0527864 C2.52338245,2.92929178 2.82371897,3.02940395 2.9472136,3.2763932 L6.5,10.381966 Z" fill="#000000" fill-rule="nonzero"></path></g></svg>