<svg height='300px' width='300px'  fill="#000000" xmlns="http://www.w3.org/2000/svg" data-name="Capa 1" viewBox="0 0 100 100" x="0px" y="0px"><defs><style>.cls-1{fill:none;stroke:#000000;stroke-miterlimit:10;stroke-width:5px;}</style></defs><title>crear iconos</title><path d="M92,28H27a3,3,0,0,1,0-6H92a3,3,0,0,1,0,6Z"></path><path d="M92,45H27a3,3,0,0,1,0-6H92a3,3,0,0,1,0,6Z"></path><path d="M92,78H27a3,3,0,0,1,0-6H92a3,3,0,0,1,0,6Z"></path><path d="M92,62H27a3,3,0,0,1,0-6H92a3,3,0,0,1,0,6Z"></path><path d="M57.16,95H26.84a3,3,0,0,1,0-6H57.16a3,3,0,0,1,0,6Z"></path><path d="M92,11H27a3,3,0,0,1,0-6H92a3,3,0,0,1,0,6Z"></path><line class="cls-1" x1="12.25" y1="19.92" x2="12.25" y2="79.58"></line><polygon points="2.99 26.95 12.25 23.01 21.51 26.95 12.25 5 2.99 26.95"></polygon><polygon points="2.99 72.56 12.25 76.49 21.51 72.56 12.25 94.5 2.99 72.56"></polygon></svg>